<?xml version="1.0" standalone="no"?>
<!DOCTYPE svg PUBLIC "-//W3C//DTD SVG 20010904//EN"
 "http://www.w3.org/TR/2001/REC-SVG-20010904/DTD/svg10.dtd">
<svg version="1.0" xmlns="http://www.w3.org/2000/svg"
 width="400.000000pt" height="96.000000pt" viewBox="0 0 400.000000 96.000000"
 preserveAspectRatio="xMidYMid meet">

<g transform="translate(0.000000,96.000000) scale(0.100000,-0.100000)"
fill="#000000" stroke="none">
<path d="M536 661 c-4 -5 3 -7 14 -4 23 6 26 13 6 13 -8 0 -17 -4 -20 -9z"/>
<path d="M257 614 c-3 -4 -2 -16 4 -26 13 -24 33 -10 23 15 -6 18 -16 21 -27
11z"/>
<path d="M352 457 c-17 -20 22 -57 40 -39 10 10 8 17 -8 33 -17 17 -22 18 -32
6z"/>
</g>
</svg>
